<svg width="158" height="43" viewBox="0 0 158 43" fill="none" xmlns="http://www.w3.org/2000/svg">
<path d="M27.99 41.8966H0.0447178V0.836538H6.96977V35.7682H27.99V41.8966ZM48.1854 42.4481C36.1125 42.4481 27.9618 33.1943 27.9618 21.3053C27.9618 9.47752 36.1125 0.223702 48.1854 0.223702C60.197 0.223702 68.409 9.47752 68.409 21.3053C68.409 33.1943 60.197 42.4481 48.1854 42.4481ZM48.2467 35.8295C56.8264 35.8295 61.1775 29.8237 61.1775 21.3053C61.1775 12.8481 56.8264 6.78105 48.2467 6.78105C39.667 6.78105 35.2545 12.8481 35.2545 21.3053C35.2545 29.8237 39.667 35.8295 48.2467 35.8295ZM90.4782 42.3868C79.9375 42.3868 73.6253 34.3587 73.6253 21.3053C73.6253 9.23239 80.6729 0.223702 93.4199 0.223702C102.061 0.223702 108.434 4.39098 111.253 11.8063L105.248 16.0962C104.022 10.8258 100.1 6.78105 93.4811 6.78105C84.9014 6.78105 80.9793 12.7868 80.9793 21.3053C80.9793 30.0075 84.9627 35.8908 93.0522 35.8908C99.9772 35.8908 103.041 32.1525 104.512 26.4531H92.6845V20.6311H111.437V41.8966H107.025L105.125 26.4531C104.819 35.7069 99.6095 42.3868 90.4782 42.3868ZM137.059 42.4481C124.986 42.4481 116.835 33.1943 116.835 21.3053C116.835 9.47752 124.986 0.223702 137.059 0.223702C149.07 0.223702 157.282 9.47752 157.282 21.3053C157.282 33.1943 149.07 42.4481 137.059 42.4481ZM137.12 35.8295C145.7 35.8295 150.051 29.8237 150.051 21.3053C150.051 12.8481 145.7 6.78105 137.12 6.78105C128.54 6.78105 124.128 12.8481 124.128 21.3053C124.128 29.8237 128.54 35.8295 137.12 35.8295Z" fill="white"/>
</svg>
